<?xml version="1.0" encoding="utf-8"?>
<!-- Generator: Adobe Illustrator 17.1.0, SVG Export Plug-In . SVG Version: 6.00 Build 0)  -->
<!DOCTYPE svg PUBLIC "-//W3C//DTD SVG 1.1//EN" "http://www.w3.org/Graphics/SVG/1.1/DTD/svg11.dtd">
<svg version="1.1" id="Calque_2" xmlns="http://www.w3.org/2000/svg" xmlns:xlink="http://www.w3.org/1999/xlink" x="0px" y="0px"
	 viewBox="0 0 214.8 284.7" enable-background="new 0 0 214.8 284.7" xml:space="preserve">
<path d="M170.4,13.2c-5.5,12.5-10.4,24.3-15.9,35.9c-2.7,5.7-9.1,6.3-14.5,7.8c-4.6,1.3-9.5,1.9-14.2,3c-2,0.5-3.9,1.3-5.9,2
	c2.6,6,5.5,11.3,7.3,17c4.1,13.1,0.7,19-12.7,22.7c0.5,0.7,0.9,1.4,1.4,1.9c6.1,6,6.6,11.7,2.3,19.3c-1.8,3.1-2.8,6.7-4.1,10.1
	c0.5,0.4,1,0.7,1.5,1.1c1.8-1.2,3.9-2.1,5.4-3.6c4.4-4.5,9.3-8.8,12.8-13.9c3.4-5.1,7.6-6.8,13-6c4.4,0.7,7.4-0.8,10.4-4
	c3.5-3.8,7.9-6.7,11.5-10.4c3.3-3.3,6-2.5,8.2-0.7c-6.7,5.4-13.6,10.6-20.1,16.2c-4.2,3.7-8.8,4.8-14.2,4.6
	c-1.4-0.1-3.8,0.8-4.2,1.9c-3.8,9.2-11.5,14.4-19.2,19.5c-4.7,3.2-5,2.8-3.1,8.7c7.1,2.8,13.8,0,20.5-1.9c8.5-2.4,16.8-2.5,25.6-1
	c5.7,1,11.8-0.7,17.7-0.4c6.3,0.3,12.6,1.4,18.9,2.1c-0.1,0.9-0.2,1.7-0.3,2.6c-2.2-0.3-4.7-0.1-6.6-1c-3.6-1.7-6.9-1.4-10.5,0
	c-3.4,1.3-7,2.5-10.5,3c-3.5,0.4-7.3,0.4-10.6-0.5c-4.7-1.4-8.9-1.2-13.7-0.3c-9.1,1.8-18.4,2.6-27.6,4c-2.7,0.4-5.4,1.5-8.4,2.4
	c2.8,4.1,4.6,7.2,7,10.1c2.3,2.8,5,5.2,7.5,7.7c0.6,0.5,1.3,1.1,2,1.3c9.1,2.6,15.8,8.8,21.1,16.1c9.5,13.2,19.5,26,30.8,37.8
	c3.1,3.3,4.5,8.1,7.1,12c5.7,8.7,11.9,17.1,17.4,25.9c2.1,3.3,0.9,6.6-2.4,8.7c-6-9.9-11.8-19.8-17.9-29.4
	c-9.6-15-19.8-29.6-32.8-42.1c-6.7-6.4-10.4-15.6-19.2-20c-0.9-0.4-1.7-1-3.7-2.1c6.3,16.6,2.8,29-13,36.4
	c-9.8,4.6-19.1,2.6-28.1-4.9c-11.6-9.8-9.6-21.1-5.4-34.1c-4.6,3.2-9.2,6.3-13.7,9.7c-1.8,1.4-2.8,4-4.7,5.1
	c-11,6.5-12.4,18.4-16.9,28.8c-6.2,14.4-13,28.5-19.7,42.6c-0.8,1.7-2.8,3.1-4.5,4.2c-0.2,0.2-2.2-1.7-2.8-2.9
	c-0.4-0.7-0.3-2.4,0.3-3c12.3-11.7,17.6-27.2,23.1-42.6c2.4-6.6,4.1-13.4,7-19.7c1.9-4.1,4.9-7.8,8-11.2c7.3-8,15.1-15.5,26.5-17.8
	c1.8-0.4,3.1-3.1,4.8-4.5c4.1-3.5,8.4-6.8,12.6-10.2c0-0.7-0.1-1.5-0.1-2.2c-3-1.3-5.8-2.9-8.9-3.7c-9-2.4-18-4.6-27-6.8
	c-2.7-0.6-5.8-1.8-8.2-1.1c-9.3,2.7-17.4-0.4-25.4-4.1c-3.4-1.6-6.5-1.9-10-0.8c-2.1,0.7-4.5,0.3-6.8-0.3c7.5-2.7,14.9-4.8,22.7-1.7
	c6.7,2.7,13.7,1.9,20.7,1.3c3.5-0.3,7.2,0.2,10.7,1.1c7.2,1.9,14.1,5.1,21.4,6.4c7,1.3,7.1,0.6,9-6.6c-8.5-4.2-13.9-11.5-19.6-18.7
	c-0.1-0.1-0.3-0.3-0.3-0.4c-1-10.1-9.9-6.3-15.3-8.6c-0.5-0.2-1.5-0.1-1.9,0.2c-6.5,4.7-11.9-0.5-17.8-1.2c0-0.6-0.1-1.2-0.1-1.8
	c1.6-0.1,3.3-0.6,4.9-0.3c4.9,0.7,9.4,1.6,14.4-1.1c6.1-3.2,14.6,0.5,18.3,6.5c4.5,7.2,9.1,14.3,17.5,19c-0.3-2.6,0-5.4-1.1-7.6
	c-5.5-11.3-4.9-15,4.3-22.9c-0.2-0.2-0.3-0.5-0.6-0.6C87.9,97.6,84,90.2,89.7,77c2.4-5.5,5.8-10.5,9.1-16.3c-1.9-0.9-4-2.1-6.3-2.9
	c-3.1-1.1-6.3-2.3-9.5-2.9C69.3,52.3,62,43.1,58.4,30.8c-1.7-5.8-4.7-9.5-10-12.1c-2-1-3.2-3.6-4.8-5.4c2.1,0.8,4.2,1.4,6.1,2.4
	c6.4,3.4,10.9,8,13.1,15.4c3.4,11.6,11.8,18.3,23.7,21c4.9,1.1,9.5,3.5,15,5.7c7.4-4.4,10.2-4.3,16.1,1c7.4-2,14.1-4.4,21.1-5.4
	c10.6-1.6,15.5-8.1,17.4-17.7c1.6-8,6.1-14.3,11.4-20.2C168.1,14.6,169.1,14.1,170.4,13.2z"/>
</svg>
